# xmcd
# 
# Track frame offsets:
#     150
#     16873
#     32973
#     52674
#     70806
#     87749
#     109407
#     125713
#     148090
#     169198
# 
# Disc length: 2407
# 
# Revision: 10
# Processed by: cddbd v1.5.2PL0 Copyright (c) Steve Scherf et al.
# Submitted via: fre:ac v1.0.31
# 
DISCID=8e09650a
DTITLE=Florence and the Machine - High As Hope
DYEAR=2018
DGENRE=Alternative/Indie
TTITLE0=June
TTITLE1=Hunger
TTITLE2=South London Forever
TTITLE3=Big God
TTITLE4=Sky Full Of Song
TTITLE5=Grace
TTITLE6=Patricia
TTITLE7=100 Years
TTITLE8=The End Of Love
TTITLE9=No Choir
EXTD=\n\nMARO\n YEAR: 2018
EXTT0=
EXTT1=
EXTT2=
EXTT3=
EXTT4=
EXTT5=
EXTT6=
EXTT7=
EXTT8=
EXTT9=
PLAYORDER=
